<svg width="80" height="80" viewBox="0 0 80 80" fill="none" xmlns="http://www.w3.org/2000/svg">
<rect width="80" height="80" rx="40" fill="#0CCFAC"/>
<g clip-path="url(#clip0)">
<path d="M64 40.3953C64 45.6606 62.3242 50.6587 59.1539 54.85C58.5284 55.6772 57.3522 55.8376 56.5275 55.214C55.7017 54.5892 55.5387 53.4133 56.1631 52.5875C58.8368 49.0532 60.25 44.837 60.25 40.3953C60.25 29.2031 51.1859 20.1562 40 20.1562C28.8064 20.1562 19.75 29.2101 19.75 40.3953C19.75 44.837 21.1632 49.0532 23.8365 52.5875C24.4613 53.4133 24.2983 54.5892 23.4725 55.214C22.6464 55.8387 21.4708 55.6758 20.8457 54.85C17.6758 50.6587 16 45.6606 16 40.3953C16 27.1296 26.7417 16.4062 40 16.4062C53.2656 16.4062 64 27.137 64 40.3953ZM51.8802 29.1031C52.6123 29.8352 52.6123 31.0225 51.8802 31.7545L45.7686 37.8662C46.2717 38.7938 46.5581 39.8558 46.5581 40.983C46.5581 44.5994 43.616 47.5411 40 47.5411C36.3837 47.5411 33.4419 44.5994 33.4419 40.983C33.4419 37.3671 36.3837 34.4249 40 34.4249C41.1276 34.4249 42.1892 34.7113 43.1168 35.2145L49.2285 29.1028C49.9609 28.3707 51.1478 28.3707 51.8802 29.1031ZM42.8081 40.9834C42.8081 39.4351 41.5483 38.1753 40 38.1753C38.4517 38.1753 37.1919 39.4351 37.1919 40.9834C37.1919 42.5317 38.4517 43.7915 40 43.7915C41.5483 43.7915 42.8081 42.5317 42.8081 40.9834Z" fill="white"/>
</g>
<defs>
<clipPath id="clip0">
<rect width="48" height="48" fill="white" transform="translate(16 12)"/>
</clipPath>
</defs>
</svg>
