<svg width="80" height="80" viewBox="0 0 80 80" fill="none" xmlns="http://www.w3.org/2000/svg">
<rect width="80" height="80" rx="40" fill="#0CCFAC"/>
<g clip-path="url(#clip0)">
<path d="M59.5117 20.4879C58.8608 19.837 57.8055 19.837 57.1546 20.4879L20.4879 57.1546C19.837 57.8055 19.837 58.8608 20.4879 59.5117C21.1388 60.1625 22.1941 60.1625 22.8449 59.5117L59.5117 22.8449C60.1625 22.1941 60.1625 21.1388 59.5117 20.4879Z" fill="white" stroke="white"/>
<path d="M53.3334 46.6666C49.6513 46.6666 46.6667 49.6512 46.6667 53.3333C46.6667 57.0154 49.6512 60 53.3334 60C57.0156 60 60 57.0154 60 53.3333C60 49.6512 57.0155 46.6666 53.3334 46.6666ZM53.3334 56.6666C51.4922 56.6666 50 55.1745 50 53.3333C50 51.492 51.4921 50 53.3334 50C55.1746 50 56.6667 51.4921 56.6667 53.3333C56.6667 55.1746 55.1746 56.6666 53.3334 56.6666Z" fill="white" stroke="white"/>
<path d="M26.6666 33.3334C30.3488 33.3334 33.3333 30.3488 33.3333 26.6667C33.3333 22.9846 30.3488 20 26.6666 20C22.9845 20 20 22.9845 20 26.6666C20 30.3488 22.9845 33.3334 26.6666 33.3334ZM26.6666 23.3334C28.5078 23.3334 30 24.8255 30 26.6667C30 28.508 28.5079 30 26.6666 30C24.8254 30 23.3333 28.5079 23.3333 26.6666C23.3333 24.8254 24.8255 23.3334 26.6666 23.3334Z" fill="white" stroke="white"/>
</g>
<defs>
<clipPath id="clip0">
<rect width="40" height="40" fill="white" transform="translate(20 20)"/>
</clipPath>
</defs>
</svg>
