<svg width="80" height="80" viewBox="0 0 80 80" fill="none" xmlns="http://www.w3.org/2000/svg">
<rect width="80" height="80" rx="40" fill="#0CCFAC"/>
<g clip-path="url(#clip0)">
<path d="M62.5 55.8547H61.5376V22.6562C61.5376 21.8279 60.866 21.1562 60.0376 21.1562H50.8882C50.0598 21.1562 49.3882 21.8279 49.3882 22.6562V55.8547H46.0751V29.656C46.0751 28.8276 45.4034 28.156 44.5751 28.156H35.4257C34.5973 28.156 33.9257 28.8276 33.9257 29.656V55.8547H30.6125V36.6561C30.6125 35.8278 29.9409 35.1561 29.1125 35.1561H19.9631C19.1348 35.1561 18.4631 35.8278 18.4631 36.6561V55.8547H17.5C16.6716 55.8547 16 56.5264 16 57.3547C16 58.1831 16.6716 58.8547 17.5 58.8547H62.5C63.3284 58.8547 64 58.1831 64 57.3547C64 56.5264 63.3284 55.8547 62.5 55.8547ZM52.3878 24.1562H58.5372V55.8547H52.3878V24.1562ZM36.9257 55.8547V31.156H43.0751V55.8547H36.9257ZM21.4631 38.1561H27.6125V55.8547H21.4631V38.1561Z" fill="white" stroke="white"/>
</g>
<defs>
<clipPath id="clip0">
<rect width="48" height="48" fill="white" transform="translate(16 16)"/>
</clipPath>
</defs>
</svg>
