<svg width="32" height="32" viewBox="0 0 32 32" fill="none" xmlns="http://www.w3.org/2000/svg">
<rect width="32" height="32" rx="16" fill="#3CC09A"/>
<path d="M24.4042 9.86083L26 8.33417V8H20.4717L16.5317 17.8067L12.0492 8H6.2525V8.33417L8.11667 10.5783C8.29833 10.7442 8.39333 10.9867 8.36917 11.2308V20.05C8.42667 20.3675 8.32333 20.6942 8.1 20.925L6 23.47V23.8H11.9542V23.4658L9.85417 20.925C9.62667 20.6933 9.51917 20.3725 9.565 20.05V12.4217L14.7917 23.8042H15.3992L19.8933 12.4217V21.4892C19.8933 21.7283 19.8933 21.7775 19.7367 21.9342L18.12 23.4983V23.8333H25.9633V23.4992L24.405 21.9733C24.2683 21.87 24.1975 21.6967 24.2267 21.5283V10.3058C24.1975 10.1367 24.2675 9.96333 24.4042 9.86083Z" fill="white"/>
</svg>
