<svg width="80" height="88" viewBox="0 0 80 88" fill="none" xmlns="http://www.w3.org/2000/svg">
<path d="M32.1476 12.4862C32.1476 8.27726 35.5718 4.85302 39.7808 4.85302C41.82 4.85302 43.7373 5.64714 45.1786 7.08843C46.6199 8.52972 47.414 10.447 47.414 12.4862V19.373L52.267 16.5702V12.4862C52.267 9.15032 50.968 6.0145 48.6106 3.65638C46.2525 1.29826 43.1175 0 39.7816 0C32.8964 0 27.2953 5.60102 27.2953 12.4862V39.8035L47.4148 51.4206V75.5145C47.4148 79.7235 43.9905 83.1478 39.7816 83.1478C37.7416 83.1478 35.8243 82.3536 34.383 80.9124C32.9417 79.4711 32.1476 77.5538 32.1476 75.5145V68.6293L27.2946 71.4299V75.5145C27.2946 78.8512 28.5944 81.9871 30.9533 84.3436C33.3114 86.7018 36.4464 88 39.7808 88C46.666 88 52.267 82.399 52.267 75.5138V48.2004L32.1476 36.5841V12.4862Z" fill="#0CCFAC"/>
<path d="M73.3191 48.9458L54.877 38.2979L68.3801 30.5013C69.1844 30.0355 69.6846 29.1703 69.6846 28.2433C69.6846 27.7884 69.5635 27.3382 69.3337 26.9411C68.9851 26.3369 68.4231 25.9055 67.7509 25.7257C67.0787 25.5451 66.3761 25.6366 65.7727 25.9852L44.8091 38.0892L70.8922 53.1477C72.6579 54.1662 73.9217 55.8138 74.4493 57.7858C74.9769 59.7563 74.7049 61.8134 73.6826 63.5791C72.3249 65.9302 69.7917 67.391 67.0717 67.391C65.7383 67.391 64.4221 67.0385 63.2645 66.3718L57.2953 62.9257V68.5298L60.8423 70.5753C62.7353 71.6672 64.8895 72.244 67.0725 72.244C71.5191 72.244 75.6624 69.8554 77.8853 66.0099C78.094 65.6496 78.2855 65.2783 78.4551 64.9047V64.9039C78.6247 64.5319 78.7771 64.1481 78.9084 63.7628C78.9749 63.5689 79.035 63.3751 79.0913 63.1797C79.4274 62.0081 79.5876 60.7958 79.5673 59.5773C79.5509 58.5541 79.4071 57.5287 79.1398 56.5298C78.2761 53.3056 76.2087 50.6122 73.3191 48.9458Z" fill="#0CCFAC"/>
<path d="M42.3896 12.4864C42.3896 11.7899 42.1184 11.135 41.626 10.6425C41.1335 10.1501 40.4786 9.87891 39.7821 9.87891C38.344 9.87891 37.1747 11.049 37.1747 12.4864V33.6813L39.7821 35.1851L63.257 21.6336C64.4201 20.9637 65.7387 20.6089 67.0705 20.6089C69.7921 20.6089 72.3269 22.0728 73.6845 24.4302C74.3543 25.5869 74.7084 26.9055 74.7084 28.2429C74.7084 30.959 73.2484 33.4898 70.8981 34.8498L64.9266 38.2983L69.7796 41.0996L73.3289 39.051C77.1728 36.8242 79.5607 32.6824 79.5607 28.2436C79.5607 26.0536 78.9823 23.8963 77.8872 22.0048C75.6643 18.1515 71.5194 15.7574 67.069 15.7574C64.8859 15.7574 62.7279 16.3366 60.8294 17.4316L42.388 28.0779V12.4864H42.3896Z" fill="#E651F3"/>
<path d="M1.57955 34.3235C1.73118 34.5963 1.90314 34.8769 2.10636 35.1809C2.59877 35.9203 3.16544 36.6019 3.79073 37.2061C4.52544 37.9166 5.3516 38.5387 6.24733 39.0554L24.6887 49.7033L11.1863 57.4998C10.3821 57.9657 9.8826 58.8309 9.8826 59.7579C9.8826 60.2128 10.0038 60.663 10.2335 61.0601C10.6978 61.8644 11.5654 62.3646 12.4971 62.3646C12.9512 62.3646 13.3999 62.2442 13.7946 62.0168L34.755 49.9143L8.67423 34.8534C6.90701 33.8327 5.64315 32.185 5.11634 30.2154C4.5911 28.2441 4.86466 26.1869 5.88544 24.4221C7.24467 22.0702 9.77708 20.6094 12.4947 20.6094C13.8297 20.6094 15.1475 20.9627 16.3051 21.6317L22.2711 25.0778V19.4737L18.7289 17.4251C16.8358 16.3332 14.6801 15.7563 12.4947 15.7563C8.04738 15.7563 3.90484 18.1457 1.68428 21.9905C0.0124183 24.8793 -0.433099 28.2457 0.429799 31.4699C0.69711 32.4703 1.08401 33.4301 1.57955 34.3235Z" fill="#0CCFAC"/>
<path d="M12.496 25.6357C11.5659 25.6357 10.6999 26.1352 10.2356 26.9403C9.88698 27.5437 9.79319 28.2455 9.97374 28.9177C10.1535 29.5907 10.585 30.1535 11.1891 30.5021L22.2732 36.9027V30.8796L13.7958 25.9843C13.3988 25.7561 12.9493 25.6357 12.496 25.6357Z" fill="#E651F3"/>
<path d="M37.1758 75.5148C37.1758 76.2112 37.447 76.8662 37.9394 77.3586C38.4318 77.851 39.0868 78.1222 39.784 78.1222C41.2214 78.1222 42.3914 76.9522 42.3914 75.5148V54.3214L39.7848 52.8152L39.7793 52.8176L16.3107 66.3691C15.15 67.0382 13.8314 67.3915 12.4972 67.3915C9.77561 67.3915 7.24006 65.9291 5.88084 63.5741C5.211 62.4119 4.85693 61.0925 4.85693 59.7583C4.85693 57.0437 6.31776 54.5121 8.66963 53.1521L14.6388 49.7052L9.78577 46.9023L6.23804 48.9502C2.39251 51.1778 0.00390625 55.3195 0.00390625 59.7583C0.00390625 61.9468 0.582301 64.104 1.67734 65.9979C3.9018 69.8512 8.04747 72.2445 12.4972 72.2445C14.681 72.2445 16.8382 71.6661 18.7368 70.5711L37.1758 59.924V75.5148Z" fill="#E651F3"/>
<path d="M67.0725 62.3654C68.0019 62.3654 68.8679 61.8659 69.333 61.0609C69.6815 60.4574 69.7746 59.7556 69.5948 59.0834C69.415 58.4104 68.9836 57.8476 68.3802 57.4998L57.2961 51.1016V57.1215L65.7735 62.016C66.1682 62.2442 66.6176 62.3654 67.0725 62.3654Z" fill="#E651F3"/>
</svg>
