<svg width="114" height="45" viewBox="0 0 114 45" fill="none" xmlns="http://www.w3.org/2000/svg">
<path d="M56.5561 28C56.3281 28 56.1361 27.922 55.9801 27.766C55.8241 27.61 55.7461 27.418 55.7461 27.19V16.264C55.7461 16.036 55.8241 15.844 55.9801 15.688C56.1361 15.52 56.3281 15.436 56.5561 15.436H63.7741C63.9901 15.436 64.1701 15.514 64.3141 15.67C64.4701 15.814 64.5481 15.994 64.5481 16.21C64.5481 16.426 64.4701 16.606 64.3141 16.75C64.1701 16.894 63.9901 16.966 63.7741 16.966H57.3841V20.944H63.1261C63.3421 20.944 63.5221 21.022 63.6661 21.178C63.8221 21.322 63.9001 21.502 63.9001 21.718C63.9001 21.934 63.8221 22.114 63.6661 22.258C63.5221 22.402 63.3421 22.474 63.1261 22.474H57.3841V26.47H63.7741C63.9901 26.47 64.1701 26.548 64.3141 26.704C64.4701 26.848 64.5481 27.028 64.5481 27.244C64.5481 27.46 64.4701 27.64 64.3141 27.784C64.1701 27.928 63.9901 28 63.7741 28H56.5561Z" fill="#373D47"/>
<path d="M73.2386 28.09C73.0106 28.09 72.8126 28.012 72.6446 27.856C72.4886 27.7 72.4106 27.508 72.4106 27.28V22.69L68.1086 16.66C68.0126 16.504 67.9646 16.342 67.9646 16.174C67.9646 15.946 68.0366 15.754 68.1806 15.598C68.3366 15.43 68.5286 15.346 68.7566 15.346C69.0566 15.346 69.2966 15.484 69.4766 15.76L73.2386 21.232L77.0006 15.76C77.1806 15.484 77.4206 15.346 77.7206 15.346C77.9486 15.346 78.1406 15.43 78.2966 15.598C78.4526 15.754 78.5246 15.946 78.5126 16.174C78.5126 16.342 78.4646 16.504 78.3686 16.66L74.0486 22.69V27.28C74.0486 27.508 73.9706 27.7 73.8146 27.856C73.6586 28.012 73.4666 28.09 73.2386 28.09Z" fill="#373D47"/>
<path d="M86.2985 28.09C86.0585 28.09 85.8425 28.024 85.6505 27.892C85.4705 27.748 85.3325 27.544 85.2365 27.28L81.7085 16.444C81.6725 16.312 81.6545 16.21 81.6545 16.138C81.6425 15.91 81.7085 15.724 81.8525 15.58C82.0085 15.424 82.2065 15.346 82.4465 15.346C82.6385 15.346 82.8065 15.406 82.9505 15.526C83.0945 15.646 83.1965 15.802 83.2565 15.994L86.2805 25.93L89.3225 16.03C89.3825 15.826 89.4965 15.664 89.6645 15.544C89.8445 15.412 90.0425 15.346 90.2585 15.346C90.4745 15.346 90.6665 15.412 90.8345 15.544C91.0145 15.664 91.1345 15.826 91.1945 16.03L94.2365 25.93L97.2605 15.994C97.3205 15.802 97.4225 15.646 97.5665 15.526C97.7105 15.406 97.8785 15.346 98.0705 15.346C98.3105 15.346 98.5025 15.424 98.6465 15.58C98.8025 15.724 98.8745 15.91 98.8625 16.138C98.8625 16.21 98.8445 16.312 98.8085 16.444L95.2805 27.28C95.1845 27.544 95.0405 27.748 94.8485 27.892C94.6685 28.024 94.4585 28.09 94.2185 28.09C93.9785 28.09 93.7565 28.018 93.5525 27.874C93.3605 27.718 93.2285 27.52 93.1565 27.28L90.2585 18.1L87.3605 27.28C87.2885 27.52 87.1505 27.718 86.9465 27.874C86.7545 28.018 86.5385 28.09 86.2985 28.09Z" fill="#373D47"/>
<path d="M103.054 28.09C102.814 28.09 102.616 28.012 102.46 27.856C102.316 27.7 102.244 27.508 102.244 27.28C102.244 27.184 102.274 27.064 102.334 26.92L106.924 16.084C107.02 15.868 107.152 15.694 107.32 15.562C107.5 15.418 107.716 15.346 107.968 15.346H108.148C108.4 15.346 108.61 15.418 108.778 15.562C108.958 15.694 109.096 15.868 109.192 16.084L113.782 26.92C113.842 27.064 113.872 27.184 113.872 27.28C113.872 27.508 113.794 27.7 113.638 27.856C113.494 28.012 113.302 28.09 113.062 28.09C112.894 28.09 112.738 28.048 112.594 27.964C112.462 27.868 112.36 27.742 112.288 27.586L111.118 24.778H104.998L103.828 27.586C103.756 27.742 103.648 27.868 103.504 27.964C103.372 28.048 103.222 28.09 103.054 28.09ZM105.628 23.284H110.488L108.058 17.434L105.628 23.284Z" fill="#373D47"/>
<path d="M16.1608 6.27689C16.1608 4.16102 17.8822 2.43964 19.9981 2.43964C21.0232 2.43964 21.987 2.83884 22.7116 3.56339C23.4361 4.28793 23.8353 5.25176 23.8353 6.27689V9.7389L26.275 8.3299V6.27689C26.275 4.59991 25.6219 3.02352 24.4369 1.83808C23.2515 0.652639 21.6755 0 19.9985 0C16.5372 0 13.7216 2.81566 13.7216 6.27689V20.0094L23.8357 25.8494V37.9615C23.8357 40.0774 22.1143 41.7988 19.9985 41.7988C18.973 41.7988 18.0091 41.3996 17.2846 40.675C16.56 39.9505 16.1608 38.9867 16.1608 37.9615V34.5003L13.7212 35.9081V37.9615C13.7212 39.6389 14.3746 41.2153 15.5604 42.4C16.7459 43.5854 18.3219 44.238 19.9981 44.238C23.4593 44.238 26.275 41.4224 26.275 37.9611V24.2306L16.1608 18.391V6.27689Z" fill="#0CCFAC"/>
<path d="M36.8585 24.6052L27.5876 19.2524L34.3756 15.333C34.78 15.0989 35.0314 14.6639 35.0314 14.1979C35.0314 13.9692 34.9705 13.7429 34.855 13.5433C34.6798 13.2396 34.3973 13.0227 34.0593 12.9323C33.7214 12.8415 33.3682 12.8875 33.0649 13.0628L22.5264 19.1475L35.6385 26.7175C36.5261 27.2295 37.1614 28.0577 37.4267 29.0491C37.6919 30.0396 37.5551 31.0738 37.0412 31.9614C36.3587 33.1433 35.0853 33.8777 33.7179 33.8777C33.0476 33.8777 32.3859 33.7005 31.804 33.3653L28.8033 31.6329V34.4501L30.5863 35.4784C31.538 36.0273 32.6209 36.3173 33.7183 36.3173C35.9536 36.3173 38.0365 35.1165 39.1539 33.1834C39.2588 33.0022 39.3551 32.8156 39.4404 32.6278V32.6274C39.5256 32.4404 39.6023 32.2474 39.6683 32.0537C39.7017 31.9563 39.7319 31.8588 39.7602 31.7606C39.9292 31.1716 40.0097 30.5622 39.9995 29.9497C39.9913 29.4353 39.919 28.9198 39.7846 28.4177C39.3504 26.7969 38.3111 25.4429 36.8585 24.6052Z" fill="#0CCFAC"/>
<path d="M21.3091 6.27709C21.3091 5.927 21.1727 5.59773 20.9252 5.35019C20.6776 5.10265 20.3484 4.96631 19.9983 4.96631C19.2753 4.96631 18.6875 5.55451 18.6875 6.27709V16.9319L19.9983 17.6879L31.7992 10.8754C32.3839 10.5387 33.0467 10.3603 33.7163 10.3603C35.0844 10.3603 36.3587 11.0962 37.0412 12.2813C37.3779 12.8628 37.5559 13.5257 37.5559 14.198C37.5559 15.5633 36.8219 16.8356 35.6404 17.5193L32.6385 19.2529L35.0781 20.6611L36.8624 19.6312C38.7948 18.5118 39.9951 16.4297 39.9951 14.1983C39.9951 13.0974 39.7044 12.0129 39.1539 11.0621C38.0364 9.12497 35.9528 7.92146 33.7155 7.92146C32.6181 7.92146 31.5332 8.21261 30.5788 8.76309L21.3083 14.115V6.27709H21.3091Z" fill="#E651F3"/>
<path d="M0.794047 17.2546C0.870273 17.3917 0.956716 17.5328 1.05888 17.6856C1.30641 18.0573 1.59128 18.3999 1.90562 18.7037C2.27496 19.0608 2.69028 19.3736 3.14056 19.6333L12.4111 24.9861L5.62342 28.9054C5.21911 29.1396 4.96803 29.5746 4.96803 30.0406C4.96803 30.2693 5.02893 30.4956 5.14445 30.6952C5.37785 31.0995 5.81399 31.351 6.28235 31.351C6.51063 31.351 6.73617 31.2905 6.93459 31.1761L17.4715 25.0921L4.36058 17.521C3.47219 17.0078 2.83684 16.1796 2.57201 15.1894C2.30797 14.1985 2.44549 13.1643 2.95864 12.2771C3.64193 11.0948 4.91499 10.3604 6.28117 10.3604C6.95228 10.3604 7.61474 10.538 8.19665 10.8744L11.1958 12.6067V9.7895L9.4151 8.75966C8.46344 8.21075 7.37977 7.92078 6.28117 7.92078C4.04546 7.92078 1.96298 9.12193 0.846698 11.0547C0.00624269 12.5069 -0.217721 14.1992 0.216062 15.82C0.350441 16.323 0.544936 16.8055 0.794047 17.2546Z" fill="#0CCFAC"/>
<path d="M6.28137 12.8871C5.81379 12.8871 5.37844 13.1382 5.14505 13.5429C4.9698 13.8462 4.92265 14.199 5.01342 14.537C5.10379 14.8753 5.32068 15.1582 5.62441 15.3334L11.1964 18.551V15.5232L6.93479 13.0623C6.73519 12.9476 6.50926 12.8871 6.28137 12.8871Z" fill="#E651F3"/>
<path d="M18.6884 37.9617C18.6884 38.3118 18.8248 38.6411 19.0723 38.8886C19.3198 39.1362 19.6491 39.2725 19.9996 39.2725C20.7222 39.2725 21.3104 38.6843 21.3104 37.9617V27.3077L20 26.5506L19.9972 26.5517L8.19944 33.3642C7.61595 33.7005 6.9531 33.8781 6.28238 33.8781C4.91424 33.8781 3.6396 33.143 2.95632 31.9591C2.61958 31.3748 2.44159 30.7116 2.44159 30.0409C2.44159 28.6763 3.17596 27.4036 4.35825 26.7199L7.35898 24.9871L4.91934 23.5781L3.13588 24.6076C1.20272 25.7274 0.00195312 27.8095 0.00195312 30.0409C0.00195312 31.141 0.292715 32.2255 0.843195 33.1775C1.96144 35.1146 4.04549 36.3178 6.28238 36.3178C7.3802 36.3178 8.46466 36.027 9.41906 35.4765L18.6884 30.1242V37.9617Z" fill="#E651F3"/>
<path d="M33.7183 31.3515C34.1855 31.3515 34.6209 31.1004 34.8547 30.6957C35.0299 30.3923 35.0767 30.0395 34.9863 29.7016C34.8959 29.3633 34.679 29.0804 34.3757 28.9055L28.8037 25.6891V28.7154L33.0653 31.1758C33.2637 31.2905 33.4897 31.3515 33.7183 31.3515Z" fill="#E651F3"/>
</svg>
