<svg width="142" height="48" viewBox="0 0 142 48" fill="none" xmlns="http://www.w3.org/2000/svg">
<path d="M56.556 30C56.328 30 56.136 29.922 55.98 29.766C55.824 29.61 55.746 29.418 55.746 29.19V18.264C55.746 18.036 55.824 17.844 55.98 17.688C56.136 17.52 56.328 17.436 56.556 17.436H63.774C63.99 17.436 64.17 17.514 64.314 17.67C64.47 17.814 64.548 17.994 64.548 18.21C64.548 18.426 64.47 18.606 64.314 18.75C64.17 18.894 63.99 18.966 63.774 18.966H57.384V22.944H63.126C63.342 22.944 63.522 23.022 63.666 23.178C63.822 23.322 63.9 23.502 63.9 23.718C63.9 23.934 63.822 24.114 63.666 24.258C63.522 24.402 63.342 24.474 63.126 24.474H57.384V28.47H63.774C63.99 28.47 64.17 28.548 64.314 28.704C64.47 28.848 64.548 29.028 64.548 29.244C64.548 29.46 64.47 29.64 64.314 29.784C64.17 29.928 63.99 30 63.774 30H56.556ZM73.2385 30.09C73.0105 30.09 72.8125 30.012 72.6445 29.856C72.4885 29.7 72.4105 29.508 72.4105 29.28V24.69L68.1085 18.66C68.0125 18.504 67.9645 18.342 67.9645 18.174C67.9645 17.946 68.0365 17.754 68.1805 17.598C68.3365 17.43 68.5285 17.346 68.7565 17.346C69.0565 17.346 69.2965 17.484 69.4765 17.76L73.2385 23.232L77.0005 17.76C77.1805 17.484 77.4205 17.346 77.7205 17.346C77.9485 17.346 78.1405 17.43 78.2965 17.598C78.4525 17.754 78.5245 17.946 78.5125 18.174C78.5125 18.342 78.4645 18.504 78.3685 18.66L74.0485 24.69V29.28C74.0485 29.508 73.9705 29.7 73.8145 29.856C73.6585 30.012 73.4665 30.09 73.2385 30.09ZM86.2984 30.09C86.0584 30.09 85.8424 30.024 85.6504 29.892C85.4704 29.748 85.3324 29.544 85.2364 29.28L81.7084 18.444C81.6724 18.312 81.6544 18.21 81.6544 18.138C81.6424 17.91 81.7084 17.724 81.8524 17.58C82.0084 17.424 82.2064 17.346 82.4464 17.346C82.6384 17.346 82.8064 17.406 82.9504 17.526C83.0944 17.646 83.1964 17.802 83.2564 17.994L86.2804 27.93L89.3224 18.03C89.3824 17.826 89.4964 17.664 89.6644 17.544C89.8444 17.412 90.0424 17.346 90.2584 17.346C90.4744 17.346 90.6664 17.412 90.8344 17.544C91.0144 17.664 91.1344 17.826 91.1944 18.03L94.2364 27.93L97.2604 17.994C97.3204 17.802 97.4224 17.646 97.5664 17.526C97.7104 17.406 97.8784 17.346 98.0704 17.346C98.3104 17.346 98.5024 17.424 98.6464 17.58C98.8024 17.724 98.8744 17.91 98.8624 18.138C98.8624 18.21 98.8444 18.312 98.8084 18.444L95.2804 29.28C95.1844 29.544 95.0404 29.748 94.8484 29.892C94.6684 30.024 94.4584 30.09 94.2184 30.09C93.9784 30.09 93.7564 30.018 93.5524 29.874C93.3604 29.718 93.2284 29.52 93.1564 29.28L90.2584 20.1L87.3604 29.28C87.2884 29.52 87.1504 29.718 86.9464 29.874C86.7544 30.018 86.5384 30.09 86.2984 30.09ZM103.054 30.09C102.814 30.09 102.616 30.012 102.46 29.856C102.316 29.7 102.244 29.508 102.244 29.28C102.244 29.184 102.274 29.064 102.334 28.92L106.924 18.084C107.02 17.868 107.152 17.694 107.32 17.562C107.5 17.418 107.716 17.346 107.968 17.346H108.148C108.4 17.346 108.61 17.418 108.778 17.562C108.958 17.694 109.096 17.868 109.192 18.084L113.782 28.92C113.842 29.064 113.872 29.184 113.872 29.28C113.872 29.508 113.794 29.7 113.638 29.856C113.494 30.012 113.302 30.09 113.062 30.09C112.894 30.09 112.738 30.048 112.594 29.964C112.462 29.868 112.36 29.742 112.288 29.586L111.118 26.778H104.998L103.828 29.586C103.756 29.742 103.648 29.868 103.504 29.964C103.372 30.048 103.222 30.09 103.054 30.09ZM105.628 25.284H110.488L108.058 19.434L105.628 25.284ZM119.023 30.054C118.747 30.054 118.507 29.958 118.303 29.766C118.111 29.562 118.015 29.322 118.015 29.046V28.938C118.015 28.662 118.111 28.428 118.303 28.236C118.507 28.032 118.747 27.93 119.023 27.93H119.203C119.479 27.93 119.713 28.032 119.905 28.236C120.109 28.428 120.211 28.662 120.211 28.938V29.046C120.211 29.322 120.109 29.562 119.905 29.766C119.713 29.958 119.479 30.054 119.203 30.054H119.023ZM126.005 30.09C125.777 30.09 125.585 30.012 125.429 29.856C125.273 29.7 125.195 29.508 125.195 29.28V18.264C125.195 18.036 125.273 17.844 125.429 17.688C125.585 17.52 125.777 17.436 126.005 17.436H133.007C133.223 17.436 133.403 17.514 133.547 17.67C133.703 17.814 133.781 17.994 133.781 18.21C133.781 18.426 133.703 18.606 133.547 18.75C133.403 18.894 133.223 18.966 133.007 18.966H126.833V22.944H132.377C132.593 22.944 132.773 23.022 132.917 23.178C133.073 23.322 133.151 23.502 133.151 23.718C133.151 23.934 133.073 24.114 132.917 24.258C132.773 24.402 132.593 24.474 132.377 24.474H126.833V29.28C126.833 29.508 126.749 29.7 126.581 29.856C126.425 30.012 126.233 30.09 126.005 30.09ZM138.956 30.09C138.728 30.09 138.536 30.012 138.38 29.856C138.224 29.7 138.146 29.508 138.146 29.28V18.174C138.146 17.946 138.224 17.754 138.38 17.598C138.536 17.43 138.728 17.346 138.956 17.346C139.184 17.346 139.376 17.43 139.532 17.598C139.7 17.754 139.784 17.946 139.784 18.174V29.28C139.784 29.508 139.7 29.7 139.532 29.856C139.376 30.012 139.184 30.09 138.956 30.09Z" fill="#373D47"/>
<path d="M16.1608 8.27689C16.1608 6.16102 17.8822 4.43964 19.9981 4.43964C21.0232 4.43964 21.987 4.83884 22.7116 5.56339C23.4361 6.28793 23.8353 7.25176 23.8353 8.27689V11.7389L26.275 10.3299V8.27689C26.275 6.59991 25.6219 5.02352 24.4369 3.83808C23.2515 2.65264 21.6755 2 19.9985 2C16.5372 2 13.7216 4.81566 13.7216 8.27689V22.0094L23.8357 27.8494V39.9615C23.8357 42.0774 22.1143 43.7988 19.9985 43.7988C18.973 43.7988 18.0091 43.3996 17.2846 42.675C16.56 41.9505 16.1608 40.9867 16.1608 39.9615V36.5003L13.7212 37.9081V39.9615C13.7212 41.6389 14.3746 43.2153 15.5604 44.4C16.7459 45.5854 18.3219 46.238 19.9981 46.238C23.4593 46.238 26.275 43.4224 26.275 39.9611V26.2306L16.1608 20.391V8.27689Z" fill="#3BC199"/>
<path d="M36.8585 26.6052L27.5876 21.2524L34.3756 17.333C34.78 17.0989 35.0314 16.6639 35.0314 16.1979C35.0314 15.9692 34.9705 15.7429 34.855 15.5433C34.6798 15.2396 34.3973 15.0227 34.0593 14.9323C33.7214 14.8415 33.3682 14.8875 33.0649 15.0628L22.5264 21.1475L35.6385 28.7175C36.5261 29.2295 37.1614 30.0577 37.4267 31.0491C37.6919 32.0396 37.5551 33.0738 37.0412 33.9614C36.3587 35.1433 35.0853 35.8777 33.7179 35.8777C33.0476 35.8777 32.3859 35.7005 31.804 35.3653L28.8033 33.6329V36.4501L30.5863 37.4784C31.538 38.0273 32.6209 38.3173 33.7183 38.3173C35.9536 38.3173 38.0365 37.1165 39.1539 35.1834C39.2588 35.0022 39.3551 34.8156 39.4404 34.6278V34.6274C39.5256 34.4404 39.6023 34.2474 39.6683 34.0537C39.7017 33.9563 39.7319 33.8588 39.7602 33.7606C39.9292 33.1716 40.0097 32.5622 39.9995 31.9497C39.9913 31.4353 39.919 30.9198 39.7846 30.4177C39.3504 28.7969 38.3111 27.4429 36.8585 26.6052Z" fill="#3BC199"/>
<path d="M21.3091 8.27709C21.3091 7.927 21.1727 7.59773 20.9252 7.35019C20.6776 7.10265 20.3484 6.96631 19.9983 6.96631C19.2753 6.96631 18.6875 7.55451 18.6875 8.27709V18.9319L19.9983 19.6879L31.7992 12.8754C32.3839 12.5387 33.0467 12.3603 33.7163 12.3603C35.0844 12.3603 36.3587 13.0962 37.0412 14.2813C37.3779 14.8628 37.5559 15.5257 37.5559 16.198C37.5559 17.5633 36.8219 18.8356 35.6404 19.5193L32.6385 21.2529L35.0781 22.6611L36.8624 21.6312C38.7948 20.5118 39.9951 18.4297 39.9951 16.1983C39.9951 15.0974 39.7044 14.0129 39.1539 13.0621C38.0364 11.125 35.9528 9.92146 33.7155 9.92146C32.6181 9.92146 31.5332 10.2126 30.5788 10.7631L21.3083 16.115V8.27709H21.3091Z" fill="url(#paint0_linear)"/>
<path d="M0.794047 19.2546C0.870273 19.3917 0.956716 19.5328 1.05888 19.6856C1.30641 20.0573 1.59128 20.3999 1.90562 20.7037C2.27496 21.0608 2.69028 21.3736 3.14056 21.6333L12.4111 26.9861L5.62342 30.9054C5.21911 31.1396 4.96803 31.5746 4.96803 32.0406C4.96803 32.2693 5.02893 32.4956 5.14445 32.6952C5.37785 33.0995 5.81399 33.351 6.28235 33.351C6.51063 33.351 6.73617 33.2905 6.93459 33.1761L17.4715 27.0921L4.36058 19.521C3.47219 19.0078 2.83684 18.1796 2.57201 17.1894C2.30797 16.1985 2.44549 15.1643 2.95864 14.2771C3.64193 13.0948 4.91499 12.3604 6.28117 12.3604C6.95228 12.3604 7.61474 12.538 8.19665 12.8744L11.1958 14.6067V11.7895L9.4151 10.7597C8.46344 10.2108 7.37977 9.92078 6.28117 9.92078C4.04546 9.92078 1.96298 11.1219 0.846698 13.0547C0.00624272 14.5069 -0.217721 16.1992 0.216062 17.82C0.350441 18.323 0.544936 18.8055 0.794047 19.2546Z" fill="#3BC199"/>
<path d="M6.28137 14.8871C5.81379 14.8871 5.37844 15.1382 5.14505 15.5429C4.9698 15.8462 4.92265 16.199 5.01342 16.537C5.10379 16.8753 5.32068 17.1582 5.62441 17.3334L11.1964 20.551V17.5232L6.93479 15.0623C6.73519 14.9476 6.50926 14.8871 6.28137 14.8871Z" fill="url(#paint1_linear)"/>
<path d="M18.6884 39.9617C18.6884 40.3118 18.8248 40.6411 19.0723 40.8886C19.3198 41.1362 19.6491 41.2725 19.9996 41.2725C20.7222 41.2725 21.3104 40.6843 21.3104 39.9617V29.3077L20 28.5506L19.9972 28.5517L8.19944 35.3642C7.61595 35.7005 6.9531 35.8781 6.28238 35.8781C4.91424 35.8781 3.6396 35.143 2.95632 33.9591C2.61958 33.3748 2.44159 32.7116 2.44159 32.0409C2.44159 30.6763 3.17596 29.4036 4.35825 28.7199L7.35898 26.9871L4.91934 25.5781L3.13588 26.6076C1.20272 27.7274 0.00195312 29.8095 0.00195312 32.0409C0.00195312 33.141 0.292715 34.2255 0.843195 35.1775C1.96144 37.1146 4.04549 38.3178 6.28238 38.3178C7.3802 38.3178 8.46466 38.027 9.41906 37.4765L18.6884 32.1242V39.9617Z" fill="url(#paint2_linear)"/>
<path d="M33.7183 33.3515C34.1855 33.3515 34.6209 33.1004 34.8547 32.6957C35.0299 32.3923 35.0767 32.0395 34.9863 31.7016C34.8959 31.3633 34.679 31.0804 34.3757 30.9055L28.8037 27.6891V30.7154L33.0653 33.1758C33.2637 33.2905 33.4897 33.3515 33.7183 33.3515Z" fill="url(#paint3_linear)"/>
<defs>
<linearGradient id="paint0_linear" x1="20.9494" y1="29.1925" x2="25.3285" y2="4.89748" gradientUnits="userSpaceOnUse">
<stop stop-color="#913AFF"/>
<stop offset="1" stop-color="#8D4BF9"/>
</linearGradient>
<linearGradient id="paint1_linear" x1="5.62939" y1="22.9081" x2="7.54888" y2="14.2828" gradientUnits="userSpaceOnUse">
<stop stop-color="#913AFF"/>
<stop offset="1" stop-color="#8D4BF9"/>
</linearGradient>
<linearGradient id="paint2_linear" x1="2.26389" y1="47.8038" x2="6.64266" y2="23.5093" gradientUnits="userSpaceOnUse">
<stop stop-color="#913AFF"/>
<stop offset="1" stop-color="#8D4BF9"/>
</linearGradient>
<linearGradient id="paint3_linear" x1="29.4648" y1="35.7079" x2="31.3834" y2="27.0848" gradientUnits="userSpaceOnUse">
<stop stop-color="#913AFF"/>
<stop offset="1" stop-color="#8D4BF9"/>
</linearGradient>
</defs>
</svg>
