<svg width="32" height="32" viewBox="0 0 32 32" fill="none" xmlns="http://www.w3.org/2000/svg"><circle cx="16" cy="16" r="16" fill="#0CCFAC"/><g clip-path="url(#clip0)" fill="#fff"><path d="M21.6472 11.2763L11.2763 21.6472C11.0161 21.9074 10.5937 21.9074 10.3335 21.6472C10.0732 21.387 10.0732 20.9646 10.3335 20.7044L20.7044 10.3335C20.9646 10.0733 21.387 10.0733 21.6472 10.3335C21.9074 10.5937 21.9074 11.0161 21.6472 11.2763Z"/><path d="M11.0502 10.5789L21.4211 20.9498C21.6813 21.21 21.6813 21.6324 21.4211 21.8926C21.1609 22.1528 20.7385 22.1528 20.4783 21.8926L10.1074 11.5217C9.84719 11.2615 9.84719 10.8391 10.1074 10.5789C10.3676 10.3187 10.79 10.3187 11.0502 10.5789Z"/></g><defs><clipPath id="clip0"><path fill="#fff" transform="rotate(-45 21.657 2.343)" d="M0 0H16V16H0z"/></clipPath></defs></svg>