<svg width="320" height="1044" viewBox="0 0 320 1044" fill="none" xmlns="http://www.w3.org/2000/svg"><path d="M242.885 -75.2833V-186.601C242.885 -219.953 229.896 -251.312 206.324 -274.884C182.752 -298.456 151.392 -311.445 118.041 -311.445C49.2015 -311.445 -6.80252 -255.441 -6.80252 -186.601V205.948V206.237L-6.55253 206.381L320.94 395.464V840.106C320.94 951.989 229.924 1043 118.041 1043C63.8577 1043 12.9156 1021.91 -25.404 983.59L-25.7575 983.943L-25.4041 983.589C-63.7363 945.295 -84.8574 894.34 -84.8574 840.119V773.869L-6.80252 728.826V840.119C-6.80252 873.47 6.18612 904.83 29.7583 928.402C53.3305 951.974 84.69 964.963 118.054 964.963C186.893 964.963 242.898 908.958 242.898 840.119V447.633V447.344L242.648 447.2L-84.8447 258.104V-186.601C-84.8447 -298.484 6.17116 -389.5 118.054 -389.5C172.263 -389.5 223.205 -368.404 261.524 -330.085C299.831 -291.765 320.94 -240.81 320.94 -186.601V-120.364L242.885 -75.2833Z" stroke="#EAEAEA"/><path d="M664.126 407.747L664.126 407.747C711.082 434.826 744.675 478.593 758.71 530.985C763.054 547.218 765.391 563.882 765.658 580.507C765.988 600.307 763.385 620.006 757.923 639.044C757.009 642.22 756.031 645.37 754.952 648.518L754.951 648.519C752.818 654.78 750.341 661.017 747.585 667.062L747.54 667.161V667.174C744.795 673.212 741.698 679.211 738.325 685.035L738.758 685.286L738.325 685.036C702.204 747.524 634.875 786.339 562.619 786.339C527.146 786.339 492.142 776.965 461.38 759.222L403.851 726.046V635.91L500.337 691.614L500.338 691.614C519.27 702.518 540.797 708.284 562.606 708.284C607.093 708.284 648.523 684.392 670.729 645.939C687.449 617.062 691.898 583.414 683.27 551.187C674.641 518.936 653.969 491.987 625.092 475.33L200.952 230.462L541.695 33.7229L541.445 33.2899L541.695 33.7229C551.409 28.1109 562.719 26.6389 573.541 29.5457L573.542 29.5458C584.363 32.4399 593.408 39.384 599.021 49.1114L599.021 49.112C602.721 55.5044 604.671 62.7519 604.671 70.0736C604.671 84.9949 596.618 98.925 583.67 106.424L363.707 233.429L362.957 233.862L363.707 234.295L664.126 407.747Z" stroke="#EAEAEA"/><path d="M500.184 -38.0222L500.183 -38.0219L118.031 182.586L76.0562 158.378V-186.595C76.0562 -209.734 94.8799 -228.57 118.031 -228.57C129.243 -228.57 139.786 -224.205 147.713 -216.277C155.523 -208.468 159.875 -198.12 160.003 -187.095H159.981V-186.595V67.3889V68.2549L160.731 67.8219L461.136 -105.605C491.988 -123.399 527.055 -132.81 562.529 -132.81C634.848 -132.81 702.202 -93.9067 738.323 -31.2912L738.324 -31.2906C756.117 -0.554718 765.516 34.4999 765.516 70.0881C765.516 142.216 726.714 209.52 664.252 245.705C664.251 245.705 664.251 245.705 664.251 245.705L606.684 278.932L528.629 233.876L625.154 178.135L624.904 177.702L625.155 178.134C663.595 155.891 687.474 114.499 687.474 70.0755C687.474 48.203 681.683 26.6375 670.728 7.7177C648.523 -30.8381 607.067 -54.781 562.554 -54.781C540.77 -54.781 519.204 -48.977 500.184 -38.0222Z" stroke="#EAEAEA"/><path d="M-495.272 182.814L-495.272 182.813C-498.576 177.87 -501.37 173.311 -503.832 168.881C-511.884 154.364 -518.172 138.767 -522.516 122.509L-522.516 122.509C-536.538 70.116 -529.298 15.4146 -502.131 -31.5291L-502.13 -31.5295C-466.047 -94.0048 -398.731 -132.832 -326.463 -132.832C-290.951 -132.832 -255.921 -123.459 -225.16 -105.716L-167.707 -72.4891V17.6468L-264.143 -38.0566C-283.075 -48.9994 -304.628 -54.7776 -326.463 -54.7776C-370.911 -54.7776 -412.329 -30.8857 -434.56 7.58049C-451.255 36.4447 -455.729 70.0923 -447.139 102.331L-447.139 102.332C-438.523 134.545 -417.851 161.494 -388.948 178.189L-388.698 177.756L-388.948 178.189L35.1534 423.095L-305.539 619.809C-311.893 623.47 -319.115 625.408 -326.425 625.408C-341.423 625.408 -355.391 617.354 -362.864 604.407L-362.865 604.407C-366.564 598.015 -368.514 590.767 -368.514 583.445C-368.514 568.524 -360.474 554.594 -347.526 547.094L-127.576 420.09L-126.826 419.657L-127.576 419.224L-427.982 245.772L-428.232 246.205L-427.982 245.772C-442.538 237.376 -455.964 227.266 -467.902 215.721L-468.25 216.08L-467.902 215.721C-478.062 205.904 -487.27 194.829 -495.272 182.814Z" stroke="#EAEAEA"/><path d="M-292.537 419.692L-389.023 475.408L-389.024 475.409C-427.49 497.652 -451.382 539.057 -451.382 583.455C-451.382 605.277 -445.591 626.855 -434.636 645.864L-434.635 645.864C-412.404 684.381 -370.936 708.299 -326.423 708.299C-304.601 708.299 -283.036 702.52 -264.053 691.578L-264.052 691.578L118.075 470.925L160.049 495.178V840.125C160.049 863.264 141.213 882.101 118.074 882.101C106.849 882.101 96.307 877.735 88.3796 869.807C80.452 861.88 76.0865 851.337 76.0865 840.125V586.154V585.288L75.3365 585.721L-225.031 759.16C-225.031 759.16 -225.031 759.161 -225.031 759.161C-255.882 776.955 -290.937 786.353 -326.423 786.353C-398.73 786.353 -466.097 747.462 -502.244 684.847L-502.244 684.847C-520.038 654.072 -529.437 619.018 -529.437 583.455C-529.437 511.327 -490.622 444.023 -428.133 407.825L-370.592 374.611L-292.537 419.692Z" fill="url(#paint0_linear)" stroke="#EAEAEA"/><defs><linearGradient id="paint0_linear" x1="-456.64" y1="1094.24" x2="-314.749" y2="306.993" gradientUnits="userSpaceOnUse"><stop stop-color="#fff"/><stop offset="1" stop-color="#fff" stop-opacity="0"/></linearGradient></defs></svg>