<svg width="1920" height="2354" viewBox="0 0 1920 2354" fill="none" xmlns="http://www.w3.org/2000/svg"><path d="M1238.58 -148.802V-398.93C1238.58 -473.383 1209.59 -543.388 1156.96 -596.01C1104.34 -648.633 1034.34 -677.628 959.883 -677.628C806.207 -677.628 681.185 -552.605 681.185 -398.93V479.335V479.623L681.435 479.768L1414.45 902.988V1898.16C1414.45 2148.82 1210.54 2352.73 959.883 2352.73C838.492 2352.73 724.361 2305.46 638.511 2219.61L638.157 2219.97L638.511 2219.61C552.633 2133.82 505.312 2019.66 505.312 1898.19V1749.6L681.185 1648.11V1898.19C681.185 1972.64 710.179 2042.64 762.802 2095.27C815.425 2147.89 885.429 2176.88 959.911 2176.88C1113.59 2176.88 1238.61 2051.86 1238.61 1898.19V1020.06V1019.77L1238.36 1019.63L505.341 596.382V-398.93C505.341 -649.59 709.251 -853.5 959.911 -853.5C1081.36 -853.5 1195.49 -806.237 1281.34 -720.387C1367.16 -634.537 1414.45 -520.377 1414.45 -398.93V-250.377L1238.58 -148.802Z" stroke="#EAEAEA"/><path d="M1509.83 541.354L1509.08 541.787L1509.83 542.22L2181.97 930.291L2182.22 929.858L2181.97 930.291C2287.17 990.958 2362.43 1089.01 2393.87 1206.39C2403.6 1242.76 2408.84 1280.09 2409.44 1317.34C2410.18 1361.7 2404.34 1405.83 2392.11 1448.49C2390.06 1455.6 2387.87 1462.66 2385.45 1469.71L2385.92 1469.87L2385.45 1469.71C2380.67 1483.74 2375.12 1497.71 2368.95 1511.26L2368.9 1511.36V1511.38C2362.74 1524.95 2355.78 1538.44 2348.2 1551.52L2348.63 1551.77L2348.2 1551.52C2267.28 1691.52 2116.43 1778.48 1954.55 1778.48C1875.08 1778.48 1796.66 1757.48 1727.74 1717.73L1598.72 1643.32V1440.23L1815.52 1565.4L1815.77 1564.96L1815.52 1565.4C1857.78 1589.74 1905.84 1602.61 1954.52 1602.61C2053.84 1602.61 2146.33 1549.27 2195.9 1463.43C2233.22 1398.97 2243.15 1323.85 2223.89 1251.91C2204.63 1179.91 2158.48 1119.75 2094.02 1082.57L1144.15 534.181L1907.43 93.474L1907.18 93.041L1907.43 93.4739C1929.31 80.8356 1954.78 77.5203 1979.15 84.0664L1979.15 84.0665C2003.52 90.584 2023.89 106.224 2036.53 128.13L2036.53 128.13C2044.86 142.526 2049.26 158.848 2049.26 175.338C2049.26 208.944 2031.12 240.314 2001.96 257.203L1509.83 541.354Z" stroke="#EAEAEA"/><path d="M1815.17 -65.9721L1815.17 -65.9719L959.862 427.781L865.332 373.262V-398.915C865.332 -451.026 907.723 -493.446 959.862 -493.446C985.111 -493.446 1008.86 -483.614 1026.71 -465.761C1044.44 -448.027 1054.26 -424.478 1054.39 -399.415H1054.34V-398.915V169.331V170.197L1055.09 169.764L1727.19 -218.249C1796.31 -258.115 1874.88 -279.2 1954.35 -279.2C2116.37 -279.2 2267.27 -192.041 2348.2 -51.7579L2348.63 -52.0078L2348.2 -51.7573C2388.06 17.1035 2409.12 95.6394 2409.12 175.371C2409.12 336.966 2322.19 487.751 2182.25 568.819L2053.14 643.338L1877.27 541.82L2094.16 416.571L2093.91 416.138L2094.16 416.57C2179.97 366.915 2233.28 274.511 2233.28 175.342C2233.28 126.514 2220.35 78.3709 2195.89 36.1349C2146.32 -49.9347 2053.78 -103.385 1954.41 -103.385C1905.78 -103.385 1857.64 -90.4282 1815.17 -65.9721Z" stroke="#EAEAEA"/><path d="M-412.816 427.918L-412.817 427.917C-420.216 416.846 -426.476 406.631 -431.995 396.703C-450.035 364.179 -464.121 329.236 -473.853 292.813L-474.335 292.942L-473.853 292.813C-505.267 175.434 -489.048 52.8799 -428.182 -52.291L-428.182 -52.2914C-347.342 -192.261 -196.529 -279.249 -34.6194 -279.249C44.9409 -279.249 123.42 -258.249 192.338 -218.497L321.189 -143.979V59.1136L104.502 -66.0495C62.2376 -90.4778 14.1232 -103.377 -34.6194 -103.377C-133.845 -103.377 -226.306 -50.0406 -275.933 35.8296C-313.203 100.267 -323.191 175.379 -304.014 247.35L-304.014 247.35C-284.78 319.264 -238.634 379.423 -174.111 416.692L775.674 965.164L12.5038 1405.81C-1.80624 1414.06 -18.0713 1418.42 -34.5339 1418.42C-68.3116 1418.42 -99.7663 1400.29 -116.598 1371.13L-117.031 1371.38L-116.598 1371.13C-124.929 1356.73 -129.321 1340.41 -129.321 1323.92C-129.321 1290.32 -111.214 1258.95 -82.0556 1242.06L410.047 957.906L410.797 957.473L410.047 957.04L-262.061 568.969L-262.311 569.402L-262.061 568.969C-294.672 550.16 -324.749 527.51 -351.496 501.644L-351.844 502.004L-351.497 501.644C-374.259 479.65 -394.889 454.837 -412.816 427.918ZM-432.432 396.946C-426.906 406.887 -420.639 417.114 -413.232 428.195L-428.615 -52.5414C-489.547 52.7443 -505.785 175.435 -474.336 292.942C-464.593 329.404 -450.493 364.386 -432.432 396.946Z" stroke="#EAEAEA"/><path d="M-116.589 128.099L-116.589 128.099C-99.7576 98.9129 -68.36 80.8051 -34.6395 80.8051C-18.2056 80.8051 -1.91171 85.1688 12.4842 93.4436L321.197 271.709V490.071L-82.0186 257.229L-82.0188 257.228C-103.924 244.59 -119.564 224.189 -126.082 199.791L-126.082 199.79C-132.628 175.421 -129.228 149.976 -116.589 128.099Z" fill="url(#paint0_linear)" stroke="#EAEAEA"/><path d="M42.5213 957.55L-174.28 1082.74L-174.28 1082.74C-260.15 1132.4 -313.486 1224.83 -313.486 1323.94C-313.486 1372.66 -300.559 1420.83 -276.102 1463.26L-275.669 1463.01L-276.102 1463.26C-226.475 1549.25 -133.9 1602.64 -34.5315 1602.64C14.1827 1602.64 62.3253 1589.74 104.703 1565.31L104.454 1564.88L104.704 1565.31L959.96 1071.46L1054.49 1126.08V1898.2C1054.49 1950.31 1012.07 1992.73 959.958 1992.73C934.68 1992.73 910.936 1982.9 893.083 1965.05C875.231 1947.19 865.398 1923.45 865.398 1898.2V1329.98V1329.12L864.648 1329.55L192.626 1717.59C123.508 1757.46 44.9715 1778.51 -34.5315 1778.51C-196.526 1778.51 -347.453 1691.38 -428.436 1551.1L-428.869 1551.35L-428.436 1551.1C-468.301 1482.15 -489.358 1403.62 -489.358 1323.94C-489.358 1162.35 -402.399 1011.56 -262.4 930.465L-133.351 855.976L42.5213 957.55Z" fill="url(#paint1_linear)" stroke="#EAEAEA"/><path d="M2001.96 1242.06L2001.96 1242.06C2023.84 1254.67 2039.48 1275.08 2046 1299.47C2052.52 1323.84 2049.15 1349.29 2036.51 1371.17C2019.65 1400.35 1988.25 1418.46 1954.56 1418.46C1938.07 1418.46 1921.77 1414.07 1907.46 1405.79L1907.46 1405.79L1598.75 1227.56V1009.31L2001.96 1242.06Z" fill="url(#paint2_linear)" stroke="#EAEAEA"/><defs><linearGradient id="paint0_linear" x1="-81.907" y1="661.823" x2="57.254" y2="36.495" gradientUnits="userSpaceOnUse"><stop stop-color="#fff"/><stop offset="1" stop-color="#fff" stop-opacity="0"/></linearGradient><linearGradient id="paint1_linear" x1="-325.87" y1="2466.74" x2="-8.411" y2="705.406" gradientUnits="userSpaceOnUse"><stop stop-color="#fff"/><stop offset="1" stop-color="#fff" stop-opacity="0"/></linearGradient><linearGradient id="paint2_linear" x1="1646.18" y1="1589.8" x2="1785.28" y2="964.632" gradientUnits="userSpaceOnUse"><stop stop-color="#fff"/><stop offset="1" stop-color="#fff" stop-opacity="0"/></linearGradient></defs></svg>