<svg xmlns="http://www.w3.org/2000/svg" xmlns:xlink="http://www.w3.org/1999/xlink" id="e8ef2464-cdbd-405d-b07a-5f56ee944cc0" data-name="Слой 1" viewBox="0 0 787.309 201.939"><defs><clipPath id="df9391cd-c764-444b-8fbd-a7be0d9547d5" transform="translate(-31.542 -38.875)"><path fill="none" d="M0 0H850.394V272.681H0z"/></clipPath><clipPath id="6ed9c569-5cbe-4e12-abde-d48aca226d79" transform="translate(-31.542 -38.875)"><path d="M203.732,168.47a23.8567,23.8567,0,0,1-5.291-.599l-41.322,70.667q.657.672,1.259,1.393l75.97-42.94a23.52775,23.52775,0,0,1,.034-15.337l-19.156-16.145a23.6911,23.6911,0,0,1-11.494,2.961" fill="none"/></clipPath><clipPath id="6208a1c1-1801-488b-b363-a597fc8e65ee" transform="translate(-31.542 -38.875)"><path d="M33.71,90.569c-.731,0-1.453-.039-2.168-.103v74.483a23.9472,23.9472,0,0,1,10.026,7.178L57.27,158.892a23.80267,23.80267,0,0,1,1.43-30.28L36.366,90.417a24.03856,24.03856,0,0,1-2.656.152" fill="none"/></clipPath><clipPath id="c03a0fca-0cf8-4c10-a189-5f6a9807fd3e" transform="translate(-31.542 -38.875)"><path d="M57.265,62.975a23.92773,23.92773,0,0,1,.296,3.742c0,.345-.011.687-.026,1.029l61.358,16.895A23.93134,23.93134,0,0,1,135.07,72.307V50.375a23.88844,23.88844,0,0,1-13.855-8.717Z" fill="none"/></clipPath><clipPath id="acb74a80-b06a-4ab9-8fb5-80aef4ad21c2" transform="translate(-31.542 -38.875)"><path d="M221.398,128.612a23.80606,23.80606,0,0,1,1.43,30.28l16.773,14.137a23.73984,23.73984,0,0,1,8.956-5.97V92.311a23.72429,23.72429,0,0,1-5.048-1.512Z" fill="none"/></clipPath><clipPath id="63eac832-7adc-4a2b-8fba-9ed46072a12f" transform="translate(-31.542 -38.875)"><path d="M45.993,87.153l20.825,35.615a23.78553,23.78553,0,0,1,26.843,5.451l25.35-21.366a23.70183,23.70183,0,0,1-2.812-11.221c0-.468.016-.931.044-1.393L55.033,77.385a24.01425,24.01425,0,0,1-9.04,9.768" fill="none"/></clipPath><clipPath id="132de37a-2df1-4bdf-aed8-f8ea56ffaef4" transform="translate(-31.542 -38.875)"><path d="M163.858,94.239c.026.462.043.925.043,1.393a23.69948,23.69948,0,0,1-2.813,11.221l25.35,21.366a23.78553,23.78553,0,0,1,26.843-5.451L235.31,85.094a23.655,23.655,0,0,1-5.315-9.067Z" fill="none"/></clipPath><clipPath id="23334a11-d33a-4fd1-a17c-95642292394d" transform="translate(-31.542 -38.875)"><path d="M145.028,118.957V231.848A23.586,23.586,0,0,1,148.823,233l40.551-69.35a23.80012,23.80012,0,0,1-8.178-26.825l-26.533-22.364a23.74995,23.74995,0,0,1-9.635,4.496" fill="none"/></clipPath><clipPath id="009ef909-87f1-4330-8e44-afe4ceb9026e" transform="translate(-31.542 -38.875)"><path d="M145.028,50.375V72.307a23.93711,23.93711,0,0,1,16.179,12.334l67.839-18.68a23.78635,23.78635,0,0,1,.68-3.436L160.75,38.875a23.9191,23.9191,0,0,1-15.722,11.5" fill="none"/></clipPath><clipPath id="4868818a-35ed-4b6a-abf6-b8bbf7a90101" transform="translate(-31.542 -38.875)"><path d="M98.903,136.825a23.80439,23.80439,0,0,1-8.179,26.825L131.275,233a23.58614,23.58614,0,0,1,3.795-1.152V118.957a23.75206,23.75206,0,0,1-9.634-4.496Z" fill="none"/></clipPath><clipPath id="cf63a029-0dfc-4844-9241-bd1fb228123c" transform="translate(-31.542 -38.875)"><path d="M46.229,181.222a23.8259,23.8259,0,0,1-1.593,16.418l76.383,43.174a24.01741,24.01741,0,0,1,1.961-2.276L81.657,167.871a23.75468,23.75468,0,0,1-16.786-2.362Z" fill="none"/></clipPath><linearGradient id="08b6a8c6-3836-4944-a539-f0203696c540" y1="272.681" x2="1" y2="272.681" gradientTransform="matrix(231.65944 0 0 -231.65944 -8.14 63333.413)" gradientUnits="userSpaceOnUse"><stop offset="0" stop-color="#fc552f"/><stop offset="1" stop-color="#ff9411"/></linearGradient><linearGradient id="151282d4-8ca8-4f25-97fb-2af1ea9baec7" y1="272.681" y2="272.681" gradientTransform="matrix(231.65944 0 0 -231.65944 -8.14 63192.01)" xlink:href="#08b6a8c6-3836-4944-a539-f0203696c540"/><linearGradient id="b6029ad7-b060-47e1-949d-e18f13dfdb4f" y1="272.681" y2="272.681" gradientTransform="matrix(231.65944 0 0 -231.65944 -8.14 63303.983)" xlink:href="#08b6a8c6-3836-4944-a539-f0203696c540"/><linearGradient id="5c79030b-2b5b-4ae9-8f87-6451565282d2" y1="272.681" y2="272.681" gradientTransform="matrix(231.65944 0 0 -231.65944 -8.14 63232.376)" xlink:href="#08b6a8c6-3836-4944-a539-f0203696c540"/><linearGradient id="7eb947d0-518f-4429-836d-0cb3fd5f9a3d" y1="272.681" y2="272.681" gradientTransform="matrix(231.65944 0 0 -231.65944 -8.14 63332.972)" xlink:href="#08b6a8c6-3836-4944-a539-f0203696c540"/><linearGradient id="d906dce5-638a-4d79-854a-eb93d569aa21" y1="272.681" y2="272.681" gradientTransform="matrix(231.65944 0 0 -231.65944 -8.14 63262.167)" xlink:href="#08b6a8c6-3836-4944-a539-f0203696c540"/><linearGradient id="be19651d-689c-431d-bd1e-0077ea3b0b8c" y1="272.681" y2="272.681" gradientTransform="matrix(231.65944 0 0 -231.65944 -8.14 63233.055)" xlink:href="#08b6a8c6-3836-4944-a539-f0203696c540"/><linearGradient id="5c96b10d-d9a7-4cf5-977d-d8c4127e5122" y1="272.681" y2="272.681" gradientTransform="matrix(231.65944 0 0 -231.65944 -8.14 63261.524)" xlink:href="#08b6a8c6-3836-4944-a539-f0203696c540"/><linearGradient id="a740feff-5693-4721-b812-15201dea84d6" y1="272.681" y2="272.681" gradientTransform="matrix(231.65944 0 0 -231.65944 -8.14 63193.402)" xlink:href="#08b6a8c6-3836-4944-a539-f0203696c540"/><linearGradient id="5128ed44-f984-4c33-967c-a7a1821b94c0" y1="272.681" y2="272.681" gradientTransform="matrix(231.65944 0 0 -231.65944 -8.14 63303.983)" xlink:href="#08b6a8c6-3836-4944-a539-f0203696c540"/></defs><g clip-path="url(#cf63a029-0dfc-4844-9241-bd1fb228123c)"><path fill="url(#08b6a8c6-3836-4944-a539-f0203696c540)" d="M13.094 126.634H91.43799999999999V201.93900000000002H13.094z"/></g><g clip-path="url(#6208a1c1-1801-488b-b363-a597fc8e65ee)"><path fill="url(#5c96b10d-d9a7-4cf5-977d-d8c4127e5122)" d="M0 51.542H27.158V133.252H0z"/></g><g clip-path="url(#acb74a80-b06a-4ab9-8fb5-80aef4ad21c2)"><path fill="url(#d906dce5-638a-4d79-854a-eb93d569aa21)" d="M189.856 51.924H217.015V134.154H189.856z"/></g><g clip-path="url(#132de37a-2df1-4bdf-aed8-f8ea56ffaef4)"><path fill="url(#5c79030b-2b5b-4ae9-8f87-6451565282d2)" d="M129.546 37.152H203.76799999999997V89.344H129.546z"/></g><g clip-path="url(#009ef909-87f1-4330-8e44-afe4ceb9026e)"><path fill="url(#151282d4-8ca8-4f25-97fb-2af1ea9baec7)" d="M113.486 0H198.184V45.766H113.486z"/></g><g clip-path="url(#6ed9c569-5cbe-4e12-abde-d48aca226d79)"><path fill="url(#7eb947d0-518f-4429-836d-0cb3fd5f9a3d)" d="M125.577 126.634H202.84V201.05599999999998H125.577z"/></g><g clip-path="url(#4868818a-35ed-4b6a-abf6-b8bbf7a90101)"><path fill="url(#b6029ad7-b060-47e1-949d-e18f13dfdb4f)" d="M59.182 75.586H103.52799999999999V194.125H59.182z"/></g><g clip-path="url(#23334a11-d33a-4fd1-a17c-95642292394d)"><path fill="url(#5128ed44-f984-4c33-967c-a7a1821b94c0)" d="M113.486 75.586H157.832V194.125H113.486z"/></g><g clip-path="url(#63eac832-7adc-4a2b-8fba-9ed46072a12f)"><path fill="url(#be19651d-689c-431d-bd1e-0077ea3b0b8c)" d="M14.451 38.51H87.469V89.344H14.451z"/></g><g clip-path="url(#c03a0fca-0cf8-4c10-a189-5f6a9807fd3e)"><path fill="url(#a740feff-5693-4721-b812-15201dea84d6)" d="M25.723 2.783H103.528V45.766H25.723z"/></g><g clip-path="url(#df9391cd-c764-444b-8fbd-a7be0d9547d5)" fill="#666"><path d="M327.82709,132.7688q9.3165,5.367,9.317,16.202a19.042,19.042,0,0,1-6.379,14.784,22.54115,22.54115,0,0,1-15.696,5.773h-30.076V98.6418h27.949a22.06215,22.06215,0,0,1,15.342,5.622,18.44639,18.44639,0,0,1,6.225,14.327,17.28464,17.28464,0,0,1-6.682,14.178m-14.885-21.062h-13.975v15.592h13.975a7.26432,7.26432,0,0,0,5.417-2.227,7.64845,7.64845,0,0,0,2.179-5.567,7.75354,7.75354,0,0,0-2.129-5.571,7.22646,7.22646,0,0,0-5.467-2.227m2.127,44.758a7.87459,7.87459,0,0,0,5.873-2.38,8.264,8.264,0,0,0,2.329-6.024,8.14653,8.14653,0,0,0-2.329-5.926,7.88588,7.88588,0,0,0-5.873-2.38h-16.102v16.71Z" transform="translate(-31.542 -38.875)"/><path d="M385.14218,169.5275l-14.278-24.608h-10.632v24.608h-13.975V98.6425h28.354a23.51566,23.51566,0,0,1,23.596,23.494,21.56638,21.56638,0,0,1-3.747,12.201,23.48685,23.48685,0,0,1-9.924,8.456l15.696,26.734Zm-24.91-57.821v20.961h14.379a8.8989,8.8989,0,0,0,6.784-3.089,10.61125,10.61125,0,0,0,2.837-7.442,10.43879,10.43879,0,0,0-2.837-7.393,8.9593,8.9593,0,0,0-6.784-3.037Z" transform="translate(-31.542 -38.875)"/><path d="M467.368,170.9453q-16.00351,0-26.431-10.632-10.431-10.635-10.429-26.227,0-15.696,10.429-26.28,10.42946-10.57951,26.431-10.58a36.13984,36.13984,0,0,1,17.771,4.504,33.01409,33.01409,0,0,1,12.707,12.204l-12.048,6.986a18.73727,18.73727,0,0,0-7.494-7.443,22.28156,22.28156,0,0,0-10.936-2.684q-10.332,0-16.659,6.484-6.32849,6.48-6.33,16.809,0,10.2255,6.33,16.708,6.33,6.48,16.659,6.48a22.52209,22.52209,0,0,0,10.984-2.683,18.1375,18.1375,0,0,0,7.446-7.342l12.048,6.988a33.066,33.066,0,0,1-12.658,12.201,36.01957,36.01957,0,0,1-17.82,4.507" transform="translate(-31.542 -38.875)"/><path d="M551.71954,169.52711l-4.253-12.759h-28.25l-4.253,12.759h-15.09l24.809-70.885h17.317l24.911,70.885Zm-28.048-25.823h19.441l-9.722-28.961Z" transform="translate(-31.542 -38.875)"/><path d="M600.22528,98.64191a23.578,23.578,0,0,1,17.214,6.887,23.95521,23.95521,0,0,1,0,33.821,23.56214,23.56214,0,0,1-17.214,6.887h-12.455v23.29h-13.975v-70.885Zm0,34.531a9.77142,9.77142,0,0,0,7.394-3.088,11.492,11.492,0,0,0,0-15.342,9.85882,9.85882,0,0,0-7.394-3.036h-12.455v21.466Z" transform="translate(-31.542 -38.875)"/><path d="M601.999 59.767H615.974V130.65200000000002H601.999z"/><path d="M676.021 59.767L676.021 73.135 656.883 73.135 656.883 130.652 642.909 130.652 642.909 73.135 623.872 73.135 623.872 59.767 676.021 59.767z"/><path d="M755.76355,169.52711l-4.253-12.759h-28.25l-4.253,12.759h-15.09l24.809-70.885h17.317l24.911,70.885Zm-28.048-25.823h19.441l-9.722-28.961Z" transform="translate(-31.542 -38.875)"/><path d="M760.272 117.284L787.309 117.284 787.309 130.652 746.297 130.652 746.297 59.767 760.272 59.767 760.272 117.284z"/></g></svg>