<svg width="129" height="48" viewBox="0 0 129 48" fill="none" xmlns="http://www.w3.org/2000/svg"><g clip-path="url(#clip0)" fill="#316BFF"><path d="M14.546 37.9985C12.2861 37.9985 10.255 37.4838 8.45283 36.4544C6.65065 35.3963 5.22034 33.9665 4.16192 32.165C3.1321 30.3635 2.61719 28.3188 2.61719 26.0311C2.61719 23.7721 3.1178 21.7418 4.11901 19.9403C5.14883 18.1386 6.53623 16.7232 8.28121 15.6937C10.0262 14.6357 12 14.1066 14.2026 14.1066C16.1193 14.1066 17.85 14.5213 19.3946 15.3506C20.9394 16.1513 22.1838 17.2236 23.1278 18.5676V5.9568C23.1278 5.44207 23.2851 5.04173 23.5998 4.75577C23.9144 4.44122 24.3149 4.28394 24.8012 4.28394C25.2875 4.28394 25.688 4.44122 26.0026 4.75577C26.3173 5.04173 26.4747 5.44207 26.4747 5.9568V26.2027C26.4174 28.4332 25.8596 30.4492 24.8012 32.2508C23.7714 34.0237 22.3554 35.4249 20.5532 36.4544C18.7796 37.4838 16.7772 37.9985 14.546 37.9985ZM14.546 34.996C16.2051 34.996 17.6783 34.6099 18.9656 33.8379C20.2815 33.0372 21.3113 31.9648 22.055 30.6208C22.8274 29.2768 23.2136 27.7469 23.2136 26.0311C23.2136 24.344 22.8274 22.8284 22.055 21.4844C21.3113 20.1118 20.2815 19.0394 18.9656 18.2674C17.6783 17.4953 16.2051 17.1092 14.546 17.1092C12.9154 17.1092 11.4421 17.4953 10.1263 18.2674C8.81044 19.0394 7.76632 20.1118 6.99392 21.4844C6.22156 22.8284 5.83537 24.344 5.83537 26.0311C5.83537 27.7469 6.22156 29.2768 6.99392 30.6208C7.76632 31.9648 8.81044 33.0372 10.1263 33.8379C11.4421 34.6099 12.9154 34.996 14.546 34.996ZM36.5596 37.7841C36.0447 37.7841 35.6299 37.6411 35.3153 37.3552C35.0292 37.0406 34.8862 36.6259 34.8862 36.1112V15.994C34.8862 15.4793 35.0292 15.0789 35.3153 14.7929C35.6299 14.4784 36.0447 14.3211 36.5596 14.3211C37.046 14.3211 37.4321 14.4784 37.7182 14.7929C38.0329 15.0789 38.1902 15.4793 38.1902 15.994V36.1112C38.1902 36.6259 38.0329 37.0406 37.7182 37.3552C37.4321 37.6411 37.046 37.7841 36.5596 37.7841ZM36.5167 9.86018C35.8874 9.86018 35.3439 9.63137 34.8862 9.17383C34.4285 8.71629 34.1997 8.15869 34.1997 7.50098C34.1997 6.78608 34.4285 6.22846 34.8862 5.82812C35.3725 5.39917 35.9303 5.18471 36.5596 5.18471C37.1604 5.18471 37.6896 5.39917 38.1473 5.82812C38.6336 6.22846 38.8768 6.78608 38.8768 7.50098C38.8768 8.15869 38.6479 8.71629 38.1902 9.17383C37.7325 9.63137 37.1747 9.86018 36.5167 9.86018ZM56.9442 37.9985C54.6843 37.9985 52.6819 37.4981 50.9369 36.4972C49.1919 35.4678 47.8188 34.0523 46.8176 32.2508C45.845 30.4492 45.3587 28.3903 45.3587 26.074C45.3587 23.7292 45.8737 21.656 46.9034 19.8544C47.9333 18.0529 49.3493 16.6517 51.1515 15.6508C52.9536 14.6213 54.999 14.1066 57.2874 14.1066C59.6046 14.1066 61.6498 14.6213 63.4235 15.6508C65.2256 16.6517 66.6273 18.0529 67.6285 19.8544C68.6584 21.656 69.1876 23.7292 69.2162 26.074L67.2853 27.1035C67.2853 29.2196 66.8419 31.1069 65.9551 32.7655C65.0683 34.3955 63.8383 35.6823 62.2649 36.6259C60.7202 37.541 58.9466 37.9985 56.9442 37.9985ZM57.3732 47.0491C55.1134 47.0491 53.1253 46.6202 51.4089 45.7624C49.6925 44.9331 48.2765 43.7893 47.1609 42.3309C46.8462 41.9877 46.7032 41.616 46.7318 41.2156C46.789 40.8152 47.0036 40.4864 47.3754 40.229C47.7473 39.9716 48.1621 39.8859 48.6198 39.9717C49.0775 40.0574 49.4351 40.2719 49.6925 40.6151C50.5221 41.6445 51.5805 42.4738 52.8678 43.1029C54.1837 43.732 55.6998 44.0466 57.4161 44.0466C59.0181 44.0466 60.4627 43.6605 61.75 42.8885C63.0373 42.1164 64.0528 41.0298 64.7966 39.6285C65.5689 38.2274 65.9551 36.583 65.9551 34.6957V28.1758L67.1994 25.688L69.2162 26.074V34.8244C69.2162 37.1407 68.7013 39.2139 67.6714 41.044C66.6417 42.9027 65.2399 44.3611 63.4664 45.4192C61.6927 46.5058 59.6618 47.0491 57.3732 47.0491ZM57.2874 34.996C58.9752 34.996 60.4627 34.6242 61.75 33.8808C63.0658 33.1086 64.0957 32.0506 64.8395 30.7066C65.5832 29.3626 65.9551 27.8184 65.9551 26.074C65.9551 24.3297 65.5832 22.7855 64.8395 21.4415C64.0957 20.0689 63.0658 19.0108 61.75 18.2674C60.4627 17.4953 58.9752 17.1092 57.2874 17.1092C55.5997 17.1092 54.0979 17.4953 52.782 18.2674C51.4661 19.0108 50.4363 20.0689 49.6925 21.4415C48.9488 22.7855 48.5769 24.3297 48.5769 26.074C48.5769 27.8184 48.9488 29.3626 49.6925 30.7066C50.4363 32.0506 51.4661 33.1086 52.782 33.8808C54.0979 34.6242 55.5997 34.996 57.2874 34.996ZM78.0022 37.7841C77.4875 37.7841 77.0727 37.6411 76.7578 37.3552C76.4715 37.0406 76.3288 36.6259 76.3288 36.1112V15.994C76.3288 15.4793 76.4715 15.0789 76.7578 14.7929C77.0727 14.4784 77.4875 14.3211 78.0022 14.3211C78.4884 14.3211 78.8746 14.4784 79.1609 14.7929C79.475 15.0789 79.6329 15.4793 79.6329 15.994V36.1112C79.6329 36.6259 79.475 37.0406 79.1609 37.3552C78.8746 37.6411 78.4884 37.7841 78.0022 37.7841ZM77.9594 9.86018C77.3297 9.86018 76.7864 9.63137 76.3288 9.17383C75.8711 8.71629 75.642 8.15869 75.642 7.50098C75.642 6.78608 75.8711 6.22846 76.3288 5.82812C76.8149 5.39917 77.3725 5.18471 78.0022 5.18471C78.6026 5.18471 79.1324 5.39917 79.59 5.82812C80.0762 6.22846 80.3189 6.78608 80.3189 7.50098C80.3189 8.15869 80.0905 8.71629 79.6329 9.17383C79.1752 9.63137 78.6169 9.86018 77.9594 9.86018Z"/><path fill-rule="evenodd" clip-rule="evenodd" d="M93.6422 4.7002C89.6926 4.7002 86.4907 7.90089 86.4907 11.8492V39.5413C86.4907 43.4896 89.6926 46.6903 93.6422 46.6903H121.344C125.294 46.6903 128.495 43.4896 128.495 39.5413V11.8492C128.495 7.90089 125.294 4.7002 121.344 4.7002H93.6422ZM101.17 36.7544C102.744 37.5837 104.517 37.9983 106.491 37.9983C107.95 37.9983 109.309 37.741 110.568 37.2263C111.826 36.7115 112.899 36.0109 113.785 35.1244V35.5963C113.785 36.2254 113.986 36.7544 114.386 37.1834C114.815 37.5837 115.345 37.7839 115.974 37.7839C116.632 37.7839 117.161 37.5837 117.561 37.1834C117.962 36.7544 118.162 36.2254 118.162 35.5963V16.4656C118.162 15.8079 117.962 15.2788 117.561 14.8785C117.161 14.4782 116.632 14.278 115.974 14.278C115.345 14.278 114.815 14.4782 114.386 14.8785C113.986 15.2788 113.785 15.8079 113.785 16.4656V28.5617C113.785 29.5911 113.5 30.5205 112.927 31.3498C112.355 32.1791 111.583 32.8368 110.61 33.3229C109.666 33.809 108.579 34.0521 107.349 34.0521C105.404 34.0521 103.773 33.4945 102.457 32.3792C101.17 31.2354 100.527 29.4482 100.527 27.0175V16.4656C100.527 15.8364 100.312 15.3217 99.8829 14.9214C99.4824 14.4924 98.9676 14.278 98.3379 14.278C97.709 14.278 97.18 14.4924 96.7509 14.9214C96.3504 15.3217 96.1497 15.8364 96.1497 16.4656V27.0175C96.1497 29.3909 96.5931 31.3926 97.4798 33.0226C98.3958 34.6526 99.6259 35.8965 101.17 36.7544Z"/></g><defs><clipPath id="clip0"><path fill="#fff" d="M0 0H128.571V48H0z"/></clipPath></defs></svg>