<svg width="216" height="216" viewBox="0 0 216 216" fill="none" xmlns="http://www.w3.org/2000/svg">
<rect width="216" height="216" rx="108" fill="#3BC199"/>
<g clip-path="url(#clip0)">
<path d="M167.392 174.51V191.52C167.392 193.111 166.103 194.4 164.513 194.4C162.922 194.4 161.633 193.111 161.633 191.52V174.51C161.633 161.266 150.915 150.547 137.67 150.548C131.403 150.548 125.716 147.355 122.459 142.007C121.631 140.649 122.062 138.877 123.42 138.05C124.778 137.222 126.55 137.652 127.377 139.011C129.581 142.629 133.428 144.789 137.67 144.789C154.097 144.788 167.392 158.082 167.392 174.51ZM117.141 145.645C117.479 147.198 116.494 148.733 114.94 149.071C107.362 150.722 99.6541 149.069 93.5173 144.881C87.442 151.391 79.4157 150.548 80.4902 150.548C67.2457 150.547 56.5271 161.265 56.5271 174.51V191.52C56.5271 193.111 55.2377 194.4 53.6474 194.4C52.0572 194.4 50.7678 193.111 50.7678 191.52V174.51C50.7678 158.083 64.0605 144.789 80.4895 144.789C87.1349 144.789 92.5223 139.434 92.5223 132.787V132.029C79.9532 126.018 71.1307 113.389 70.5929 98.6815C65.4204 97.4378 61.5664 92.8081 61.5664 87.2998V72.3714C61.4091 65.0644 62.494 46.7633 75.8378 33.9008C92.3147 18.0175 118.738 19.0264 138.168 28.3798C140.061 29.2923 140.349 31.8508 138.776 33.1758C148.619 35.5767 157.107 41.6275 162.56 50.2873C162.841 50.7332 163.357 51.4333 163.222 52.5503C163.139 53.2453 162.932 53.8335 162.396 54.377C158.886 57.9362 156.954 62.6527 156.954 67.6579V87.3005C156.954 88.8907 155.665 90.1801 154.074 90.1801C152.484 90.1801 151.195 88.8907 151.195 87.3005V67.6579C151.195 61.8853 153.167 56.4061 156.789 52.0046C151.268 44.1087 142.654 39.0304 132.913 37.9873L127.851 37.4452C124.892 37.1285 124.311 33.0513 127.062 31.9192L129.364 30.9715C99.3845 20.5202 67.3253 32.1327 67.3253 72.3401V87.2998C67.3253 89.5847 68.6413 91.5706 70.5649 92.568V73.8998C70.5649 62.7852 79.6076 53.7424 90.7222 53.7424H127.437C138.552 53.7424 147.595 62.7845 147.595 73.8987V97.4767C147.595 122.52 123.122 141.542 98.22 134.211C98.0581 136.266 97.5466 138.248 96.7133 140.091C101.558 143.418 107.675 144.76 113.714 143.444C115.268 143.105 116.802 144.091 117.141 145.645ZM109.08 130.014C127.142 130.014 141.836 115.32 141.836 97.2579V73.8987C141.836 65.9603 135.377 59.5017 127.437 59.5017H90.7222C82.7831 59.5017 76.3241 65.9607 76.3241 73.8998V97.2579C76.3241 115.32 91.0181 130.014 109.08 130.014ZM138.236 179.642H129.597C128.007 179.642 126.718 180.931 126.718 182.522C126.718 184.112 128.007 185.401 129.597 185.401H138.236C139.826 185.401 141.116 184.112 141.116 182.522C141.116 180.931 139.826 179.642 138.236 179.642Z" fill="white"/>
</g>
<defs>
<clipPath id="clip0">
<rect width="172.8" height="172.8" fill="white" transform="translate(22.6799 21.6)"/>
</clipPath>
</defs>
</svg>
