<svg width="80" height="80" viewBox="0 0 80 80" fill="none" xmlns="http://www.w3.org/2000/svg"><rect width="80" height="80" rx="40" fill="#0CCFAC"/><g clip-path="url(#clip0)"><path d="M65.4458 33.7094C65.4458 31.5249 64.614 29.4422 63.1043 27.8455C62.5964 27.308 62.5134 27.2002 62.2981 27.0556C53.2537 20.9821 27.7799 20.9799 18.7366 27.0575C18.4764 27.2325 18.3798 27.382 17.9319 27.8455C16.4222 29.4422 15.5905 31.5249 15.5905 33.7094V36.7833C15.5905 37.7982 15.9302 39.0204 17.0701 40.2617C14.9904 43.3124 15.759 46.031 15.5905 48.1261C15.5905 50.187 16.9891 53.1039 23.6528 55.2967C38.1099 60.054 65.4458 57.3767 65.4458 48.1261C65.278 46.0415 66.0542 43.3244 63.9661 40.2617C65.106 39.0204 65.4458 37.7978 65.4458 36.7829V33.7094ZM19.4854 36.7833V33.7094C19.4854 32.782 19.7575 31.8884 20.2616 31.1241C29.8988 36.0178 51.1329 36.0216 60.7743 31.123C61.2784 31.8877 61.5508 32.7816 61.5508 33.7094V36.7833C61.5508 37.3872 60.4223 38.9009 56.1518 40.3064C47.5678 43.1309 33.4665 43.1302 24.8848 40.3064C20.6139 38.9009 19.4854 37.3872 19.4854 36.7833ZM56.7708 28.6526C48.2489 31.6777 33.0678 31.7559 24.2646 28.6406C32.787 25.6152 47.9673 25.5374 56.7708 28.6526ZM61.5508 48.1261C61.5508 48.73 60.4223 50.2437 56.1518 51.6492C47.5678 54.4737 33.4665 54.473 24.8848 51.6492C20.6139 50.2437 19.4854 48.73 19.4854 48.1261V45.0521C19.4854 44.1552 19.7396 43.2898 20.2125 42.5416C29.8173 47.5071 51.2276 47.5029 60.8241 42.5416C61.2966 43.2894 61.5512 44.1552 61.5512 45.0521V48.1261H61.5508Z" fill="#fff"/></g><defs><clipPath id="clip0"><path fill="#fff" transform="translate(15.585 15.385)" d="M0 0H49.87V49.231H0z"/></clipPath></defs></svg>