<svg width="80" height="80" viewBox="0 0 80 80" fill="none" xmlns="http://www.w3.org/2000/svg"><rect width="80" height="80" rx="40" fill="#0CCFAC"/><g clip-path="url(#clip0)" fill="#fff"><path d="M60.8417 25.8653C61.829 24.2062 61.6024 22.0323 60.1615 20.6098C58.7207 19.1873 56.5185 18.9636 54.8377 19.9382C31.814 4.50769 4.56838 31.4081 20.1971 54.1347C19.2099 55.7938 19.4365 57.9677 20.8775 59.3901C22.3094 60.8037 24.5094 61.0428 26.2012 60.0616C49.229 75.4936 76.4696 48.5878 60.8417 25.8653ZM40.5194 61.6487C35.9089 61.6487 31.627 60.2357 28.0923 57.8269C28.6637 56.2912 28.327 54.4977 27.0802 53.2668C25.8333 52.0358 24.0166 51.7035 22.4608 52.2676C9.01695 32.3017 32.7381 8.90596 52.9465 22.1729C52.3751 23.7087 52.7118 25.5021 53.9587 26.733C55.2004 27.9588 57.0123 28.2997 58.5781 27.7322C68.5877 41.8117 58.0677 61.7496 40.5194 61.6487Z"/><path d="M51.6263 40.5813L51.0314 40.3511C47.9356 39.154 44.4373 39.7901 41.9813 41.9594V37.9985C48.1661 34.5334 47.667 25.3409 41.1048 22.5627L40.5193 22.3101L39.9338 22.5627C33.3691 25.3425 32.8748 34.5351 39.0573 37.9986V41.9594C36.6013 39.7902 33.1032 39.1538 30.0072 40.3511L29.4122 40.5813L29.1791 41.1686C26.6318 47.4516 32.3115 54.1934 39.0573 52.8222V58.7622H41.9813V52.8222C48.7281 54.1937 54.4066 47.4497 51.8595 41.1686L51.6263 40.5813Z"/></g><defs><clipPath id="clip0"><path fill="#fff" transform="translate(15.585 15.385)" d="M0 0H49.87V49.231H0z"/></clipPath></defs></svg>