<svg width="80" height="80" viewBox="0 0 80 80" fill="none" xmlns="http://www.w3.org/2000/svg"><rect width="80" height="80" rx="40" fill="#0CCFAC"/><g clip-path="url(#clip0)" fill="#fff"><path d="M56.2314 48.7157H19.7402V51.6461H56.2314L50.3688 57.4336L52.4676 59.5055L60.8638 51.2169C61.4433 50.6445 61.4433 49.7173 60.8638 49.145L52.4676 40.8564L50.3688 42.9283L56.2314 48.7157Z"/><path d="M28.5713 20.3435L20.175 28.6322C19.5956 29.2045 19.5956 30.1317 20.175 30.704L28.5713 38.9927L30.6701 36.9208L24.8075 31.1333L61.2986 31.1333V28.2029H24.8075L30.6701 22.4154L28.5713 20.3435Z"/></g><defs><clipPath id="clip0"><path fill="#fff" transform="rotate(-90 40.127 20.386)" d="M0 0H41.026V41.558H0z"/></clipPath></defs></svg>