<svg width="32" height="32" viewBox="0 0 32 32" fill="none" xmlns="http://www.w3.org/2000/svg">
<circle cx="16" cy="16" r="16" fill="#0CCFAC"/>
<path d="M23.3333 16.6529H8.66667C8.29867 16.6529 8 16.3542 8 15.9862C8 15.6182 8.29867 15.3196 8.66667 15.3196H23.3333C23.7013 15.3196 24 15.6182 24 15.9862C24 16.3542 23.7013 16.6529 23.3333 16.6529Z" fill="white"/>
<path d="M23.3333 11.5416H8.66667C8.29867 11.5416 8 11.2429 8 10.8749C8 10.5069 8.29867 10.2083 8.66667 10.2083H23.3333C23.7013 10.2083 24 10.5069 24 10.8749C24 11.2429 23.7013 11.5416 23.3333 11.5416Z" fill="white"/>
<path d="M23.3333 21.7638H8.66667C8.29867 21.7638 8 21.4651 8 21.0971C8 20.7291 8.29867 20.4304 8.66667 20.4304H23.3333C23.7013 20.4304 24 20.7291 24 21.0971C24 21.4651 23.7013 21.7638 23.3333 21.7638Z" fill="white"/>
</svg>
